<svg xmlns="http://www.w3.org/2000/svg" viewBox="0 0 34.79 35.13"><title>K</title><path d="M17.42,6.38V.75" style="fill:none;stroke:#000;stroke-linecap:round;stroke-width:1.5px"/><path d="M14.92,2.75h5" style="fill:none;stroke:#000;stroke-linecap:round;stroke-width:1.5px"/><path d="M17.42,19.75s4.5-7.5,3-10.5c0,0-1-2.5-3-2.5s-3,2.5-3,2.5c-1.5,3,3,10.5,3,10.5" style="fill:#fff;stroke:#000;stroke-width:1.5px;fill-rule:evenodd"/><path d="M6.42,31.75c5.5,3.5,15.5,3.5,21,0v-7s9-4.5,6-10.5c-4-6.5-13.5-3.5-16,4v0c-3.5-7.5-13-10.5-16-4-3,6,5,10,5,10Z" style="fill:#fff;stroke:#000;stroke-linecap:round;stroke-linejoin:round;stroke-width:1.5px;fill-rule:evenodd"/><path d="M6.42,24.75c5.5-3,15.5-3,21,0" style="fill:none;stroke:#000;stroke-linecap:round;stroke-linejoin:round;stroke-width:1.5px"/><path d="M6.42,28.25c5.5-3,15.5-3,21,0" style="fill:none;stroke:#000;stroke-linecap:round;stroke-linejoin:round;stroke-width:1.5px"/><path d="M6.42,31.75c5.5-3,15.5-3,21,0" style="fill:none;stroke:#000;stroke-linecap:round;stroke-linejoin:round;stroke-width:1.5px"/></svg>