<svg xmlns="http://www.w3.org/2000/svg" viewBox="0 0 34.79 35.13"><title>kb</title><path d="M17.42,6.38V.75" style="fill:none;stroke:#000;stroke-linecap:round;stroke-width:1.5px"/><path d="M17.42,19.75s4.5-7.5,3-10.5c0,0-1-2.5-3-2.5s-3,2.5-3,2.5c-1.5,3,3,10.5,3,10.5" style="stroke:#000;stroke-width:1.5px;fill-rule:evenodd"/><path d="M6.42,31.75c5.5,3.5,15.5,3.5,21,0v-7s9-4.5,6-10.5c-4-6.5-13.5-3.5-16,4v0c-3.5-7.5-13-10.5-16-4-3,6,5,10,5,10Z" style="stroke:#000;stroke-linecap:round;stroke-linejoin:round;stroke-width:1.5px;fill-rule:evenodd"/><path d="M14.92,2.75h5" style="fill:none;stroke:#000;stroke-linecap:round;stroke-width:1.5px"/><path d="M26.92,24.25s8.5-4,6-9.65c-3.88-5.85-13-1.85-15.53,4.65v0c-2.5-6.5-12.59-10.5-15.5-4.65-2.5,5.65,4.85,9,4.85,9" style="fill:none;stroke:#fff;stroke-linecap:round;stroke-linejoin:round;stroke-width:1.5px"/><path d="M6.42,24.75c5.5-3,15.5-3,21,0m-21,3.5c5.5-3,15.5-3,21,0m-21,3.5c5.5-3,15.5-3,21,0" style="fill:none;stroke:#fff;stroke-linecap:round;stroke-linejoin:round;stroke-width:1.5px"/></svg>