<svg xmlns="http://www.w3.org/2000/svg" viewBox="0 0 38.5 35.94"><title>qb</title><circle cx="2.75" cy="6.75" r="2.75"/><circle cx="10.75" cy="3.75" r="2.75"/><circle cx="19.25" cy="2.75" r="2.75"/><circle cx="27.75" cy="3.75" r="2.75"/><circle cx="35.75" cy="6.75" r="2.75"/><path d="M5.75,20.75c8.5-1.5,21-1.5,27,0l2.5-12.5-7.5,11.5-.3-14.1-5.2,13.6-3-14.5-3,14.5-5.2-13.6-.3,14.1L3.25,8.25Z" style="stroke:#000;stroke-linejoin:round;stroke-width:1.5px;fill-rule:evenodd"/><path d="M5.75,20.75c0,2,1.5,2,2.5,4,1,1.5,1,1,.5,3.5a3.23,3.23,0,0,0-1.5,2.5c-1.5,1.5.5,2.5.5,2.5a88.54,88.54,0,0,0,23,0s1.5-1,0-2.5a2.22,2.22,0,0,0-1-2.5c-.5-2.5-.5-2,.5-3.5,1-2,2.5-2,2.5-4A81.56,81.56,0,0,0,5.75,20.75Z" style="stroke:#000;stroke-linejoin:round;stroke-width:1.5px;fill-rule:evenodd"/><path d="M7.75,33.25a35,35,0,0,0,23,0" style="fill:none;stroke:#000;stroke-linejoin:round;stroke-width:1.5px"/><path d="M7.75,23.75a35,35,0,0,1,23,0" style="fill:none;stroke:#fff;stroke-linecap:round;stroke-linejoin:round;stroke-width:1.5px"/><path d="M9.25,26.25h20" style="fill:none;stroke:#fff;stroke-linecap:round;stroke-linejoin:round;stroke-width:1.5px"/><path d="M8.25,29.25a35.07,35.07,0,0,0,22,0" style="fill:none;stroke:#fff;stroke-linecap:round;stroke-linejoin:round;stroke-width:1.5px"/><path d="M7.25,32.25a35,35,0,0,0,24,0" style="fill:none;stroke:#fff;stroke-linecap:round;stroke-linejoin:round;stroke-width:1.5px"/></svg>